<svg width="136" height="115" viewBox="0 0 136 115" fill="none" xmlns="http://www.w3.org/2000/svg">
<path d="M121.455 38.0077L119.605 14.635C119.555 14.0549 119.175 13.6049 118.695 13.5449L98.4416 11.3946C98.2416 11.3746 98.0515 11.2846 97.9015 11.1346L86.5898 0.263307C86.2698 -0.0467291 85.8097 -0.0867338 85.4597 0.163295L68.2271 12.2147C67.9071 12.4347 67.527 12.4347 67.207 12.2147L49.9744 0.163295C49.6143 -0.0867338 49.1643 -0.0467291 48.8442 0.263307L37.5426 11.1446C37.3925 11.2946 37.1925 11.3846 37.0025 11.4046L16.7495 13.5549C16.2594 13.6049 15.8894 14.0649 15.8393 14.645L13.9891 38.0177C13.9691 38.2677 13.8891 38.4978 13.749 38.6878L0.207031 57.5L13.739 76.3122C13.8791 76.5022 13.9591 76.7323 13.9791 76.9823L15.8293 100.355C15.8794 100.935 16.2594 101.385 16.7395 101.445L36.9925 103.595C37.1925 103.615 37.3825 103.715 37.5326 103.855L48.8342 114.737C49.1543 115.047 49.6143 115.087 49.9644 114.837L67.197 102.785C67.517 102.565 67.8971 102.565 68.2171 102.785L85.4497 114.837C85.8097 115.087 86.2598 115.047 86.5798 114.737L97.8815 103.855C98.0315 103.705 98.2316 103.615 98.4216 103.595L118.675 101.445C119.165 101.395 119.535 100.935 119.585 100.355L121.435 76.9823C121.455 76.7323 121.535 76.5022 121.675 76.3122L135.207 57.5L121.675 38.6878C121.535 38.4978 121.455 38.2677 121.435 38.0177L121.455 38.0077Z" fill="white"/>
</svg>
