<svg width="116" height="115" viewBox="0 0 116 115" fill="none" xmlns="http://www.w3.org/2000/svg">
<path d="M114.963 20.074C115.513 19.034 115.083 17.6639 114.063 17.2739L82.9924 4.69359L71.8721 0.193469C71.1821 -0.0865383 70.422 0.163468 69.972 0.803486L59.0317 16.1639C58.3417 17.1239 57.0417 17.1239 56.3617 16.1539L45.6214 0.733484C45.1714 0.0834663 44.4013 -0.16654 43.7113 0.113467L32.411 4.68359L1.34019 17.2739C0.33016 17.6839 -0.109852 19.034 0.440162 20.074V94.936C-0.109852 95.976 0.320159 97.3461 1.34019 97.7361L32.411 110.316L43.7113 114.887C44.4013 115.167 45.1714 114.917 45.6214 114.267L56.3717 98.8561C57.0517 97.8761 58.3517 97.8761 59.0417 98.8461L69.982 114.207C70.432 114.857 71.2021 115.097 71.8821 114.817L83.0024 110.326L114.073 97.7461C115.083 97.3361 115.523 95.986 114.973 94.946V20.074H114.963Z" fill="white"/>
</svg>
