<svg width="120" height="115" viewBox="0 0 120 115" fill="none" xmlns="http://www.w3.org/2000/svg">
<path d="M112.101 57.35C116.391 51.4 118.921 44.1 118.921 36.21C118.921 16.21 102.711 0 82.7112 0C73.9212 0 65.8712 3.13 59.6012 8.34C53.3312 3.13 45.2812 0 36.4912 0C16.4912 0 0.28125 16.21 0.28125 36.21C0.28125 44.23 2.89125 51.64 7.31125 57.65C3.02125 63.59 0.49125 70.89 0.49125 78.79C0.49125 98.79 16.7012 115 36.7012 115C45.4912 115 53.5412 111.87 59.8112 106.66C66.0812 111.87 74.1312 115 82.9212 115C102.921 115 119.131 98.79 119.131 78.79C119.131 70.77 116.521 63.36 112.101 57.35Z" fill="white"/>
</svg>
